<?xml version="1.0" encoding="utf-8"?>
<!-- Generator: Adobe Illustrator 26.0.1, SVG Export Plug-In . SVG Version: 6.00 Build 0)  -->
<svg version="1.1" id="Layer_3" xmlns="http://www.w3.org/2000/svg" xmlns:xlink="http://www.w3.org/1999/xlink" x="0px" y="0px"
	 viewBox="0 0 162 36" style="enable-background:new 0 0 162 36;" xml:space="preserve">
<style type="text/css">
	.st0{fill:#FFFFFF;}
</style>
<g>
	<g>
		<path class="st0" d="M17.62,15.56c0,0.38-0.06,0.78-0.18,1.21c-0.12,0.43-0.32,0.83-0.6,1.2c-0.28,0.37-0.64,0.67-1.09,0.92
			c-0.45,0.25-0.99,0.37-1.64,0.37H3.07c-0.21,0-0.4-0.04-0.58-0.12s-0.33-0.19-0.46-0.32c-0.13-0.14-0.23-0.3-0.31-0.49
			c-0.07-0.19-0.11-0.39-0.11-0.61V3.96c0-0.21,0.04-0.41,0.11-0.6c0.07-0.19,0.18-0.35,0.31-0.49c0.13-0.14,0.28-0.25,0.46-0.33
			s0.37-0.12,0.58-0.12h9.72c0.36,0,0.74,0.07,1.15,0.2c0.41,0.13,0.79,0.35,1.15,0.64c0.35,0.29,0.65,0.67,0.88,1.14
			c0.23,0.47,0.35,1.04,0.35,1.73v0.57c0,0.54-0.09,1.12-0.26,1.74s-0.45,1.21-0.83,1.77c0.33,0.21,0.64,0.47,0.92,0.76
			c0.29,0.3,0.54,0.64,0.75,1.03c0.22,0.39,0.39,0.83,0.51,1.33c0.13,0.49,0.19,1.04,0.19,1.63V15.56z M14.71,14.97
			c0-0.4-0.06-0.76-0.18-1.07s-0.29-0.59-0.5-0.82c-0.22-0.23-0.48-0.4-0.78-0.52s-0.65-0.18-1.03-0.18H5.67V9.3h5.24
			c0.38,0,0.72-0.06,1.03-0.18C12.24,9,12.5,8.82,12.72,8.6c0.22-0.23,0.38-0.5,0.5-0.82c0.11-0.32,0.17-0.68,0.17-1.07V6.13
			c0-0.44-0.2-0.66-0.6-0.66H4.51V16.2h9.59c0.05,0,0.11-0.01,0.19-0.01c0.07-0.01,0.14-0.03,0.2-0.07c0.06-0.04,0.11-0.1,0.16-0.2
			c0.05-0.09,0.07-0.22,0.07-0.39V14.97z"/>
		<path class="st0" d="M34.62,19.26H24.14c-0.4,0-0.84-0.07-1.32-0.22c-0.48-0.15-0.92-0.39-1.32-0.73
			c-0.41-0.34-0.75-0.78-1.02-1.33c-0.27-0.54-0.41-1.21-0.41-2V3.96c0-0.21,0.04-0.41,0.11-0.6c0.07-0.19,0.18-0.35,0.31-0.49
			c0.13-0.14,0.29-0.25,0.46-0.33c0.18-0.08,0.37-0.12,0.58-0.12h13.09v3.05H22.98v9.5c0,0.4,0.1,0.7,0.3,0.92
			c0.2,0.21,0.49,0.32,0.88,0.32h10.46V19.26z M33.32,12.38h-9.17V9.3h9.17V12.38z"/>
		<path class="st0" d="M53.15,19.26h-2.91v-4.13H40.03v4.13h-2.91v-8.42c0-1.23,0.2-2.36,0.6-3.39c0.4-1.03,0.96-1.92,1.68-2.66
			c0.71-0.74,1.56-1.32,2.54-1.74c0.98-0.41,2.04-0.62,3.2-0.62h6.55c0.2,0,0.39,0.04,0.57,0.12c0.18,0.08,0.33,0.19,0.47,0.33
			c0.13,0.14,0.24,0.3,0.31,0.49c0.07,0.19,0.11,0.39,0.11,0.6V19.26z M40.03,12.07h10.21v-6.6h-5.11c-0.09,0-0.28,0.01-0.56,0.04
			c-0.29,0.03-0.62,0.1-0.99,0.21S42.81,6,42.39,6.23c-0.42,0.23-0.8,0.54-1.15,0.94c-0.35,0.4-0.64,0.9-0.87,1.5
			c-0.23,0.6-0.34,1.33-0.34,2.18V12.07z"/>
		<path class="st0" d="M70.88,19.26H60.39c-0.27,0-0.56-0.03-0.87-0.1c-0.31-0.07-0.61-0.17-0.92-0.31
			c-0.3-0.14-0.59-0.32-0.87-0.55c-0.28-0.22-0.52-0.49-0.73-0.81c-0.21-0.32-0.38-0.69-0.51-1.1c-0.13-0.42-0.19-0.89-0.19-1.41
			V6.71c0-0.28,0.03-0.59,0.1-0.91c0.06-0.33,0.16-0.65,0.3-0.96c0.13-0.32,0.31-0.62,0.52-0.91c0.22-0.29,0.48-0.55,0.78-0.77
			s0.65-0.4,1.04-0.53c0.4-0.13,0.84-0.2,1.34-0.2h10.48v3.05H60.39c-0.38,0-0.67,0.11-0.87,0.32c-0.2,0.21-0.3,0.52-0.3,0.94v8.24
			c0,0.39,0.1,0.69,0.31,0.91c0.2,0.22,0.49,0.32,0.87,0.32h10.48V19.26z"/>
		<path class="st0" d="M76.55,9.3h10.2V2.42h2.91v16.83h-2.91v-6.88h-10.2v6.88h-2.91V2.42h2.91V9.3z"/>
		<path class="st0" d="M107.54,5.47h-6.4v13.78h-2.91V5.47h-6.41V2.42h15.72V5.47z"/>
		<path class="st0" d="M124.16,19.26h-10.48c-0.4,0-0.84-0.07-1.32-0.22c-0.48-0.15-0.92-0.39-1.32-0.73
			c-0.41-0.34-0.75-0.78-1.02-1.33c-0.27-0.54-0.41-1.21-0.41-2V3.96c0-0.21,0.04-0.41,0.11-0.6c0.07-0.19,0.18-0.35,0.31-0.49
			c0.13-0.14,0.29-0.25,0.46-0.33c0.18-0.08,0.37-0.12,0.58-0.12h13.09v3.05h-11.64v9.5c0,0.4,0.1,0.7,0.3,0.92
			c0.2,0.21,0.49,0.32,0.88,0.32h10.46V19.26z M122.85,12.38h-9.17V9.3h9.17V12.38z"/>
		<path class="st0" d="M141.21,19.26h-10.48c-0.27,0-0.56-0.03-0.87-0.1c-0.31-0.07-0.61-0.17-0.92-0.31
			c-0.3-0.14-0.59-0.32-0.87-0.55c-0.28-0.22-0.52-0.49-0.73-0.81c-0.21-0.32-0.38-0.69-0.51-1.1c-0.13-0.42-0.19-0.89-0.19-1.41
			V6.71c0-0.28,0.03-0.59,0.1-0.91c0.06-0.33,0.16-0.65,0.3-0.96c0.13-0.32,0.31-0.62,0.52-0.91c0.22-0.29,0.48-0.55,0.78-0.77
			s0.65-0.4,1.04-0.53c0.4-0.13,0.84-0.2,1.34-0.2h10.48v3.05h-10.48c-0.38,0-0.67,0.11-0.87,0.32c-0.2,0.21-0.3,0.52-0.3,0.94v8.24
			c0,0.39,0.1,0.69,0.31,0.91c0.2,0.22,0.49,0.32,0.87,0.32h10.48V19.26z"/>
		<path class="st0" d="M146.89,9.3h10.2V2.42H160v16.83h-2.91v-6.88h-10.2v6.88h-2.91V2.42h2.91V9.3z"/>
	</g>
	<g>
		<path class="st0" d="M86.25,29.03H82.7v5.34h-1.04V21.56h3.96c1.3,0,2.32,0.33,3.05,0.99c0.73,0.66,1.1,1.59,1.1,2.78
			c0,0.82-0.23,1.54-0.69,2.17s-1.07,1.06-1.84,1.3l3.05,5.46v0.11h-1.1L86.25,29.03z M82.7,28.12h3.16c0.87,0,1.56-0.26,2.09-0.78
			c0.53-0.52,0.79-1.19,0.79-2.01c0-0.91-0.28-1.61-0.82-2.11s-1.31-0.75-2.3-0.75H82.7V28.12z"/>
		<path class="st0" d="M101.6,28.66c0,1.18-0.2,2.22-0.58,3.11c-0.39,0.89-0.94,1.58-1.66,2.06c-0.72,0.48-1.55,0.72-2.5,0.72
			c-1.42,0-2.58-0.53-3.45-1.61c-0.88-1.07-1.31-2.52-1.31-4.34v-1.32c0-1.17,0.2-2.2,0.59-3.1c0.39-0.9,0.95-1.59,1.67-2.08
			c0.72-0.48,1.55-0.73,2.49-0.73s1.77,0.24,2.49,0.71c0.72,0.48,1.27,1.15,1.66,2.02c0.39,0.87,0.6,1.88,0.61,3.02V28.66z
			 M100.57,27.27c0-1.54-0.33-2.75-1-3.63s-1.58-1.31-2.73-1.31c-1.13,0-2.04,0.44-2.71,1.31c-0.67,0.88-1.01,2.1-1.01,3.68v1.34
			c0,1.52,0.34,2.73,1.01,3.61c0.67,0.89,1.58,1.33,2.73,1.33c1.17,0,2.08-0.44,2.73-1.32c0.65-0.88,0.98-2.1,0.98-3.67V27.27z"/>
		<path class="st0" d="M104.2,34.38V21.56h3.61c1.31,0,2.3,0.28,2.97,0.85c0.68,0.57,1.02,1.4,1.02,2.51c0,0.66-0.17,1.24-0.52,1.73
			c-0.34,0.49-0.82,0.84-1.41,1.05c0.71,0.17,1.28,0.53,1.71,1.1c0.43,0.57,0.65,1.23,0.65,1.97c0,1.13-0.35,2.02-1.04,2.65
			c-0.7,0.64-1.66,0.95-2.91,0.95H104.2z M105.23,27.31h2.82c0.86-0.02,1.53-0.23,2-0.64c0.47-0.41,0.71-1,0.71-1.79
			c0-0.82-0.25-1.43-0.73-1.82c-0.49-0.39-1.23-0.59-2.22-0.59h-2.57V27.31z M105.23,28.22v5.24h3.09c0.88,0,1.58-0.24,2.1-0.71
			c0.52-0.47,0.78-1.13,0.78-1.96c0-0.79-0.25-1.42-0.74-1.88c-0.49-0.46-1.18-0.69-2.05-0.69H105.23z"/>
		<path class="st0" d="M123.74,28.66c0,1.18-0.2,2.22-0.58,3.11c-0.39,0.89-0.94,1.58-1.66,2.06c-0.72,0.48-1.55,0.72-2.5,0.72
			c-1.42,0-2.58-0.53-3.45-1.61c-0.88-1.07-1.31-2.52-1.31-4.34v-1.32c0-1.17,0.2-2.2,0.59-3.1s0.95-1.59,1.67-2.08
			s1.55-0.73,2.49-0.73s1.77,0.24,2.49,0.71c0.72,0.48,1.27,1.15,1.66,2.02c0.39,0.87,0.6,1.88,0.61,3.02V28.66z M122.71,27.27
			c0-1.54-0.33-2.75-1-3.63s-1.58-1.31-2.73-1.31c-1.13,0-2.04,0.44-2.71,1.31c-0.67,0.88-1.01,2.1-1.01,3.68v1.34
			c0,1.52,0.34,2.73,1.01,3.61c0.67,0.89,1.58,1.33,2.73,1.33c1.17,0,2.08-0.44,2.73-1.32c0.65-0.88,0.98-2.1,0.98-3.67V27.27z"/>
		<path class="st0" d="M134.39,22.47h-4.18v11.9h-1.03v-11.9H125v-0.92h9.39V22.47z"/>
		<path class="st0" d="M137.62,34.38h-1.03V21.56h1.03V34.38z"/>
		<path class="st0" d="M149.57,30.38c-0.14,1.35-0.6,2.38-1.38,3.1c-0.78,0.72-1.82,1.07-3.11,1.07c-0.91,0-1.71-0.24-2.4-0.71
			c-0.7-0.48-1.23-1.15-1.61-2.02c-0.38-0.87-0.57-1.87-0.58-2.99v-1.66c0-1.14,0.19-2.15,0.57-3.03c0.38-0.88,0.92-1.56,1.64-2.04
			c0.71-0.48,1.53-0.72,2.46-0.72c1.31,0,2.34,0.37,3.1,1.11c0.76,0.74,1.2,1.76,1.32,3.07h-1.04c-0.26-2.18-1.38-3.27-3.38-3.27
			c-1.11,0-1.99,0.43-2.64,1.3c-0.66,0.87-0.99,2.07-0.99,3.6v1.57c0,1.48,0.32,2.66,0.96,3.54c0.64,0.88,1.5,1.32,2.6,1.32
			c1.08,0,1.89-0.27,2.44-0.81c0.55-0.54,0.88-1.36,1.01-2.44H149.57z"/>
		<path class="st0" d="M158.98,31.22c0-0.71-0.24-1.27-0.71-1.69c-0.48-0.41-1.34-0.81-2.61-1.18s-2.18-0.78-2.77-1.22
			c-0.83-0.62-1.24-1.44-1.24-2.45c0-0.98,0.38-1.78,1.15-2.39c0.77-0.61,1.75-0.92,2.95-0.92c0.81,0,1.54,0.16,2.18,0.49
			s1.14,0.79,1.49,1.37c0.35,0.59,0.53,1.24,0.53,1.96h-1.04c0-0.88-0.29-1.58-0.86-2.12c-0.57-0.53-1.34-0.8-2.3-0.8
			c-0.93,0-1.68,0.22-2.23,0.66c-0.55,0.44-0.83,1.01-0.83,1.71c0,0.65,0.25,1.19,0.75,1.6c0.5,0.41,1.29,0.78,2.39,1.09
			c1.1,0.32,1.93,0.64,2.49,0.98c0.56,0.34,0.99,0.74,1.27,1.21c0.29,0.47,0.43,1.02,0.43,1.66c0,1.01-0.38,1.82-1.15,2.43
			c-0.77,0.61-1.78,0.92-3.04,0.92c-0.86,0-1.65-0.16-2.37-0.48c-0.72-0.32-1.26-0.78-1.63-1.35c-0.37-0.58-0.56-1.25-0.56-2h1.03
			c0,0.9,0.32,1.62,0.96,2.14c0.64,0.52,1.5,0.78,2.56,0.78c0.95,0,1.71-0.22,2.29-0.66C158.69,32.54,158.98,31.95,158.98,31.22z"/>
	</g>
</g>
</svg>
