<?xml version="1.0" encoding="utf-8"?>
<!-- Generator: Adobe Illustrator 26.0.1, SVG Export Plug-In . SVG Version: 6.00 Build 0)  -->
<svg version="1.1" id="Guides" xmlns="http://www.w3.org/2000/svg" xmlns:xlink="http://www.w3.org/1999/xlink" x="0px" y="0px"
	 viewBox="0 0 468 60" style="enable-background:new 0 0 468 60;" xml:space="preserve">
<style type="text/css">
	.st0{fill:#00979C;}
	.st1{fill:#FFFFFF;}
	.st2{fill:#00C5CC;}
</style>
<rect x="159.32" y="0.07" class="st0" width="205.8" height="59.8"/>
<g>
	<path class="st1" d="M266.95,31.18c0.1-0.29,0.07-0.47,0.07-0.65c0-2.43,0-4.86,0-7.3c0-0.08,0-0.17,0-0.25
		c0.01-0.49,0.01-0.49,0.5-0.49c0.83,0,1.65,0,2.48,0c0.4,0,0.4,0.01,0.41,0.43c0,0.08,0,0.17,0,0.25c0,4.45,0,8.9,0,13.35
		c0,0.05,0,0.1,0,0.15c0,0.54,0,0.54-0.54,0.55c-0.89,0-1.79-0.01-2.68,0.01c-0.34,0.01-0.53-0.11-0.69-0.42
		c-1.45-2.75-2.92-5.49-4.38-8.23c-0.09-0.17-0.15-0.36-0.33-0.5c-0.14,0.2-0.08,0.4-0.08,0.59c0.01,2.65,0.02,5.29,0.03,7.94
		c0,0.61,0,0.61-0.59,0.61c-0.76,0-1.52,0-2.28,0c-0.65,0-0.58,0-0.58-0.61c0-1.31,0-2.61,0-3.92c0-3.19,0-6.39,0-9.58
		c0-0.66-0.03-0.61,0.63-0.61c0.96,0,1.92,0.01,2.88-0.01c0.34-0.01,0.53,0.11,0.69,0.41c1.38,2.58,2.77,5.16,4.16,7.73
		C266.73,30.79,266.82,30.94,266.95,31.18z"/>
	<path class="st1" d="M211.74,37.13c-0.18,0.1-0.31,0.08-0.44,0.08c-1.12,0-2.25-0.01-3.37,0.01c-0.34,0.01-0.5-0.13-0.63-0.42
		c-0.59-1.28-1.21-2.54-1.79-3.82c-0.15-0.34-0.35-0.48-0.71-0.44c-0.23,0.02-0.46,0-0.69,0c-0.66,0-0.63-0.03-0.63,0.61
		c0,1.12,0,2.25,0,3.37c0,0.12-0.01,0.23,0,0.35c0.01,0.22-0.08,0.33-0.32,0.33c-1.01-0.01-2.02,0-3.03,0c-0.2,0-0.31-0.08-0.3-0.29
		c0.01-0.12,0-0.23,0-0.35c0-4.48,0-8.96,0-13.44c0-0.08,0-0.17,0-0.25c0.01-0.37,0.02-0.38,0.4-0.38c2,0,4-0.01,6,0.01
		c0.61,0,1.22,0.1,1.81,0.27c1.98,0.55,3.13,1.94,3.29,3.99c0.05,0.59,0.04,1.19-0.07,1.78c-0.23,1.3-0.86,2.34-1.98,3.08
		c-0.33,0.22-0.33,0.23-0.15,0.58c0.78,1.48,1.57,2.95,2.35,4.42C211.57,36.78,211.64,36.94,211.74,37.13z M203.46,27.55
		c0,0.58,0.01,1.16,0,1.73c0,0.25,0.09,0.36,0.35,0.35c0.31-0.01,0.63,0,0.94,0c0.46-0.01,0.92,0.03,1.38-0.09
		c0.63-0.16,1.03-0.56,1.22-1.18c0.13-0.42,0.13-0.85,0.11-1.28c-0.06-0.92-0.47-1.38-1.38-1.55c-0.79-0.14-1.58-0.05-2.37-0.07
		c-0.24,0-0.25,0.17-0.25,0.34C203.46,26.39,203.46,26.97,203.46,27.55z"/>
	<path class="st1" d="M214.3,29.83c0-2.22,0-4.43,0-6.65c0-0.13,0.01-0.26,0-0.4c-0.01-0.22,0.1-0.3,0.31-0.29c0.07,0,0.13,0,0.2,0
		c1.55,0,3.11-0.01,4.66,0.01c0.95,0.01,1.88,0.12,2.79,0.38c2.06,0.58,3.36,1.91,3.86,3.99c0.44,1.83,0.45,3.68,0.04,5.51
		c-0.61,2.71-2.39,4.3-5.17,4.71c-0.64,0.09-1.28,0.13-1.93,0.13c-1.41,0-2.81,0-4.22,0c-0.07,0-0.13,0-0.2,0
		c-0.24,0.01-0.38-0.07-0.36-0.34c0.01-0.13,0-0.26,0-0.4C214.3,34.26,214.3,32.04,214.3,29.83z M217.95,29.82c0,0.46,0,0.93,0,1.39
		c0,0.88,0,1.75,0,2.63c0,0.23,0.06,0.38,0.33,0.37c0.53-0.02,1.06,0.02,1.59-0.02c1.54-0.13,2.35-0.87,2.57-2.34
		c0.18-1.17,0.15-2.34,0.06-3.51c-0.03-0.33-0.07-0.66-0.16-0.98c-0.25-0.89-0.81-1.45-1.7-1.7c-0.79-0.21-1.6-0.19-2.41-0.19
		c-0.19,0-0.26,0.11-0.26,0.28c0,0.13,0,0.26,0,0.4C217.95,27.37,217.95,28.6,217.95,29.82z"/>
	<path class="st1" d="M272.89,30c-0.04-1.16,0.07-2.31,0.39-3.43c0.11-0.4,0.26-0.79,0.44-1.16c0.8-1.67,2.11-2.68,3.94-3
		c1.27-0.22,2.54-0.16,3.78,0.18c1.5,0.4,2.55,1.34,3.16,2.77c0.38,0.89,0.56,1.83,0.64,2.79c0.13,1.57,0.13,3.14-0.24,4.68
		c-0.09,0.39-0.21,0.76-0.36,1.13c-0.84,2.07-2.41,3.16-4.6,3.41c-1.05,0.12-2.08,0.07-3.1-0.2c-1.51-0.4-2.6-1.32-3.27-2.73
		c-0.49-1.03-0.69-2.13-0.77-3.26C272.87,30.8,272.89,30.4,272.89,30z M276.76,29.95c0,0.59-0.02,1.19,0.01,1.78
		c0.02,0.53,0.1,1.05,0.29,1.55c0.24,0.64,0.7,1.02,1.38,1.14c0.46,0.08,0.92,0.07,1.38-0.03c0.57-0.12,0.99-0.44,1.23-0.98
		c0.16-0.35,0.24-0.72,0.29-1.1c0.18-1.48,0.13-2.97,0.06-4.46c-0.02-0.49-0.1-0.99-0.27-1.46c-0.22-0.57-0.61-0.92-1.21-1.06
		c-0.48-0.1-0.95-0.11-1.43-0.05c-0.7,0.09-1.17,0.49-1.41,1.16c-0.1,0.3-0.17,0.6-0.21,0.91
		C276.72,28.23,276.74,29.09,276.76,29.95z"/>
	<path class="st1" d="M240.73,27.87c0,1.44,0,2.88,0,4.32c0,0.55-0.05,1.09-0.18,1.62c-0.37,1.49-1.27,2.52-2.68,3.1
		c-1.14,0.47-2.33,0.58-3.55,0.53c-0.7-0.03-1.38-0.13-2.05-0.35c-1.71-0.57-2.72-1.75-3.06-3.51c-0.09-0.44-0.12-0.88-0.12-1.33
		c0-3.08,0-6.15,0-9.23c0-0.08,0-0.17,0-0.25c0-0.19,0.09-0.27,0.27-0.27c0.03,0,0.07,0,0.1,0c0.96,0,1.92,0,2.88,0
		c0.35,0,0.36,0.02,0.38,0.37c0.01,0.28,0,0.56,0,0.84c0,2.48,0,4.96,0,7.44c0,0.58,0.01,1.16,0.14,1.73
		c0.25,1.04,0.76,1.49,1.81,1.59c0.38,0.04,0.76,0,1.13-0.09c0.64-0.15,1.03-0.57,1.22-1.18c0.16-0.54,0.21-1.1,0.21-1.67
		c0-2.76,0-5.52,0-8.29c0-0.84-0.09-0.74,0.73-0.75c0.73-0.01,1.46,0,2.18,0c0.57,0,0.58,0,0.58,0.56
		C240.73,24.66,240.73,26.26,240.73,27.87C240.73,27.87,240.73,27.87,240.73,27.87z"/>
	<path class="st1" d="M195.5,37.21c-0.45,0-0.89,0-1.34,0c-0.62-0.01-0.54,0.04-0.7-0.52c-0.19-0.7-0.38-1.4-0.57-2.11
		c-0.1-0.37-0.11-0.38-0.51-0.38c-1.14,0-2.28,0-3.42,0c-0.39,0-0.4,0.01-0.5,0.39c-0.19,0.74-0.37,1.48-0.55,2.21
		c-0.1,0.39-0.1,0.4-0.49,0.4c-0.96,0.01-1.92,0.01-2.88,0c-0.44,0-0.45-0.02-0.31-0.46c0.91-2.9,1.82-5.81,2.73-8.71
		c0.51-1.64,1.03-3.28,1.55-4.92c0.23-0.73,0.09-0.62,0.88-0.63c0.93-0.01,1.85-0.01,2.78,0c0.71,0,0.61-0.08,0.82,0.58
		c1.29,4.05,2.58,8.1,3.87,12.15c0.17,0.54,0.34,1.07,0.51,1.61c0.11,0.35,0.09,0.37-0.26,0.38
		C196.56,37.22,196.03,37.21,195.5,37.21C195.5,37.21,195.5,37.21,195.5,37.21z M190.61,26.26c-0.14,0.04-0.12,0.16-0.14,0.25
		c-0.33,1.31-0.65,2.62-0.98,3.94c-0.06,0.22-0.11,0.45-0.17,0.67c-0.04,0.17,0.02,0.25,0.19,0.26c0.23,0,0.46,0.01,0.69,0.01
		c0.51,0,1.02,0,1.53,0c0.19,0,0.27-0.09,0.22-0.28c-0.02-0.1-0.05-0.19-0.08-0.29c-0.37-1.39-0.74-2.77-1.12-4.16
		C190.73,26.51,190.73,26.36,190.61,26.26z"/>
	<path class="st1" d="M249.66,22.49c1.67,0,3.34,0,5.01,0c0.61,0,0.61,0,0.61,0.63c0,0.64,0,1.29,0,1.93c0,0.43-0.01,0.44-0.46,0.44
		c-0.89,0.01-1.79,0-2.68,0c-0.13,0-0.26,0-0.4,0c-0.2,0-0.32,0.07-0.3,0.29c0.01,0.1,0,0.2,0,0.3c0,2.51,0,5.03,0,7.54
		c0,0.07,0,0.13,0,0.2c0.02,0.35,0.02,0.37,0.37,0.37c0.94,0.01,1.88,0,2.83,0c0.13,0,0.26,0,0.4,0c0.17,0,0.24,0.09,0.24,0.25
		c0,0.83,0,1.65,0,2.48c0,0.19-0.09,0.27-0.27,0.27c-0.1,0-0.2,0-0.3,0c-3.37,0-6.75,0-10.12,0c-0.59,0-0.6,0-0.6-0.59
		c0-0.63,0-1.26,0-1.89c0-0.52,0-0.53,0.51-0.53c0.88,0,1.75,0,2.63,0c0.12,0,0.23-0.01,0.35,0c0.2,0.01,0.32-0.07,0.31-0.28
		c0-0.1,0-0.2,0-0.3c0-2.51,0-5.03,0-7.54c0-0.05,0-0.1,0-0.15c-0.01-0.41-0.02-0.42-0.42-0.43c-0.91-0.01-1.82,0-2.73,0
		c-0.72,0-0.65,0.01-0.65-0.64c0-0.58,0-1.16,0-1.74c0-0.67-0.04-0.63,0.61-0.63C246.29,22.49,247.98,22.49,249.66,22.49z"/>
</g>
<g>
	<path class="st1" d="M320.47,26.03c0.08-0.06,0.11-0.13,0.16-0.19c0.98-1.4,2.11-2.67,3.45-3.73c1.46-1.16,3.06-2.03,4.89-2.44
		c3.8-0.84,7.22-0.06,10.15,2.54c1.79,1.59,2.91,3.59,3.29,5.96c0.49,3.05-0.26,5.79-2.22,8.18c-1.73,2.11-3.98,3.38-6.67,3.83
		c-2.8,0.46-5.43-0.07-7.87-1.51c-1.68-0.99-3.07-2.31-4.28-3.83c-0.26-0.33-0.51-0.67-0.76-1.02c-0.04-0.05-0.07-0.12-0.13-0.15
		c-0.08,0.04-0.11,0.11-0.15,0.17c-0.98,1.4-2.11,2.67-3.45,3.74c-1.47,1.17-3.09,2.03-4.92,2.46c-3.58,0.84-7.36-0.03-10.13-2.55
		c-1.81-1.65-2.96-3.69-3.31-6.13c-0.46-3.3,0.48-6.18,2.76-8.6c1.76-1.87,3.96-2.96,6.5-3.29c2.66-0.35,5.15,0.18,7.46,1.53
		c1.73,1.01,3.16,2.37,4.4,3.94c0.24,0.31,0.46,0.62,0.7,0.94C320.38,25.91,320.42,25.96,320.47,26.03z M309.27,23.06
		c-0.4,0-0.8,0.03-1.2,0.09c-1.83,0.31-3.36,1.16-4.52,2.62c-1.18,1.48-1.64,3.18-1.35,5.05c0.25,1.63,1.03,2.99,2.3,4.04
		c2.07,1.72,4.44,2.12,7,1.42c1.32-0.36,2.45-1.08,3.47-1.98c1.39-1.23,2.47-2.71,3.36-4.33c0.06-0.1,0.05-0.18-0.01-0.28
		c-0.44-0.81-0.94-1.59-1.5-2.32c-0.84-1.09-1.79-2.06-2.93-2.84C312.5,23.58,310.97,23.06,309.27,23.06z M332.07,23.06
		c-1.34,0-2.26,0.16-3.15,0.49c-1.22,0.46-2.28,1.17-3.22,2.06c-1.26,1.18-2.25,2.56-3.08,4.07c-0.07,0.12-0.05,0.21,0.01,0.32
		c0.49,0.9,1.05,1.76,1.69,2.56c0.79,0.98,1.67,1.86,2.71,2.57c1.65,1.12,3.47,1.65,5.47,1.43c1.73-0.19,3.21-0.89,4.43-2.13
		c2.45-2.5,2.55-6.34,0.22-8.94C335.69,23.86,333.84,23.1,332.07,23.06z"/>
	<path class="st1" d="M309.52,30.91c-0.98,0-1.97,0-2.95,0c-0.05,0-0.11,0-0.16,0c-0.1,0.01-0.13-0.04-0.13-0.14
		c0-0.22,0-0.44,0-0.66c0-0.38,0-0.76,0-1.15c0-0.16,0.01-0.16,0.16-0.16c0.27,0,0.53,0,0.8,0c1.76,0,3.52,0,5.28,0
		c0.31,0,0.28-0.03,0.28,0.29c0,0.54,0,1.08,0,1.62c0,0.19,0,0.19-0.19,0.19C311.58,30.91,310.55,30.91,309.52,30.91z"/>
	<path class="st1" d="M332.39,27.73c0,0.3,0,0.6,0,0.9c0,0.18,0,0.18,0.19,0.18c0.56,0,1.12,0,1.68,0c0.05,0,0.1,0,0.14,0
		c0.19,0,0.19,0,0.19,0.19c0,0.53,0,1.07,0,1.6c0,0.03,0,0.07,0,0.1c0,0.21,0,0.21-0.2,0.21c-0.23,0-0.46,0-0.7,0
		c-0.38,0-0.75,0-1.13,0c-0.18,0-0.18,0-0.18,0.19c0,0.56,0,1.12,0,1.68c0,0.04,0,0.08,0,0.12c0,0.22,0,0.23-0.23,0.23
		c-0.56,0-1.12,0-1.68,0c-0.2,0-0.2,0-0.2-0.21c0-0.58,0-1.16,0-1.74c0-0.05,0-0.11,0-0.16c0-0.07-0.03-0.1-0.1-0.1
		c-0.05,0-0.11,0-0.16,0c-0.57,0-1.13,0-1.7,0c-0.05,0-0.11,0-0.16,0c-0.05,0-0.08-0.03-0.08-0.08c0-0.04,0-0.08,0-0.12
		c0-0.56,0-1.12,0-1.68c0-0.21,0-0.22,0.21-0.22c0.55,0,1.11,0,1.66,0c0.05,0,0.1,0,0.14,0c0.19,0,0.2,0,0.2-0.19
		c0-0.44,0-0.87,0-1.31c0-0.18,0-0.36,0-0.53c0-0.18,0-0.18,0.19-0.18c0.57,0,1.15,0,1.72,0c0.2,0,0.2,0,0.2,0.21
		C332.39,27.12,332.39,27.42,332.39,27.73C332.39,27.73,332.39,27.73,332.39,27.73z"/>
</g>
<g>
	<rect y="0.2" class="st2" width="159.83" height="59.8"/>
	<g>
		<path class="st1" d="M23.11,37.65V22.67h2.6v14.98H23.11z M27.3,32.41l-1.27-7.08h-0.66l0.17-2.66h1.55l1.1,6.7h0.08l0.3,3.04
			H27.3z M27.91,32.41l0.32-3.04h0.13l1.1-6.7H31l0.17,2.66h-0.66l-1.27,7.08H27.91z M30.84,37.65V22.67h2.6v14.98H30.84z"/>
		<path class="st1" d="M34.9,37.65l4.33-14.98h3.42l4.33,14.98h-3.01l-2.93-11.32h-0.19L37.9,37.65H34.9z M37.08,34.81v-2.57h7.6
			v2.57H37.08z"/>
		<path class="st1" d="M48.56,37.65V22.67h2.79v14.98H48.56z M51.2,37.65v-2.67h1.17c1.37,0,2.4-0.39,3.09-1.18
			c0.69-0.78,1.03-1.93,1.03-3.43c0-1.66-0.34-2.92-1.03-3.77c-0.69-0.85-1.71-1.28-3.09-1.28h-1.13l-0.25-2.66h1.38
			c4.69,0,7.04,2.57,7.04,7.7c0,4.85-2.35,7.28-7.04,7.28H51.2z"/>
		<path class="st1" d="M61.43,37.65V22.67h2.78v14.98H61.43z M61.43,25.23v-2.56H71.7v2.56H61.43z M61.43,31.44v-2.57h8.38v2.57
			H61.43z M61.43,37.65v-2.56H71.7v2.56H61.43z"/>
		<path class="st1" d="M86.87,37.65l-1.6-14.98h2.74l0.92,12.5h0.3l1.12-8.7h2.47l-0.89,2.88H91.5l-0.84,8.3H86.87z M92.48,37.65
			l-0.84-8.3h-0.42l-0.86-2.88h2.47l1.1,8.7h0.3l0.92-12.5h2.74l-1.6,14.98H92.48z"/>
		<path class="st1" d="M99.49,25.17v-2.5h9.47v2.5H99.49z M99.49,37.65v-2.51h9.47v2.51H99.49z M102.82,37.65V22.67h2.78v14.98
			H102.82z"/>
		<path class="st1" d="M111.22,25.23v-2.56h11.33v2.56H111.22z M115.49,37.65V22.67h2.79v14.98H115.49z"/>
		<path class="st1" d="M124.51,37.65V22.67h2.79v14.98H124.51z M124.96,31.48v-2.57h9.23v2.57H124.96z M131.79,37.65V22.67h2.79
			v14.98H131.79z"/>
	</g>
</g>
</svg>
